<svg width="28" height="22" viewBox="0 0 28 22" fill="none" xmlns="http://www.w3.org/2000/svg">
<path d="M23.7393 1.8581C26.9016 6.6524 28.4632 12.0604 27.8794 18.2861C27.877 18.3125 27.8637 18.3367 27.8427 18.3526C25.448 20.1658 23.1279 21.2662 20.8403 21.996C20.8224 22.0016 20.8034 22.0013 20.7858 21.9951C20.7681 21.989 20.7528 21.9773 20.7419 21.9617C20.2134 21.2034 19.7332 20.404 19.3125 19.5645C19.2884 19.5151 19.3104 19.4555 19.3601 19.436C20.1228 19.1397 20.848 18.7846 21.5455 18.3641C21.6005 18.3309 21.604 18.2497 21.5532 18.2107C21.4052 18.0974 21.2585 17.9783 21.1182 17.8592C21.0919 17.8372 21.0566 17.8328 21.0268 17.8476C16.4982 20.0041 11.5373 20.0041 6.95514 17.8476C6.92534 17.8339 6.89004 17.8386 6.86444 17.8603C6.72444 17.9794 6.57744 18.0974 6.43084 18.2107C6.38004 18.2497 6.38424 18.3309 6.43954 18.3641C7.13714 18.7766 7.86234 19.1397 8.62394 19.4375C8.67324 19.457 8.69674 19.5151 8.67224 19.5645C8.26064 20.4051 7.78044 21.2045 7.24214 21.9628C7.21864 21.9935 7.18014 22.0075 7.14374 21.996C4.86704 21.2662 2.54684 20.1658 0.152143 18.3526C0.132243 18.3367 0.117843 18.3114 0.115743 18.2851C-0.372157 12.8999 0.622242 7.4472 4.25204 1.857C4.26084 1.8422 4.27414 1.8306 4.28954 1.8238C6.07554 0.978497 7.98904 0.356698 9.98894 0.00149753C10.0253 -0.00430247 10.0617 0.0130973 10.0806 0.0462973C10.3277 0.497397 10.6101 1.076 10.8012 1.5488C12.9093 1.2167 15.0502 1.2167 17.2024 1.5488C17.3935 1.0861 17.6661 0.497397 17.9122 0.0462973C17.9209 0.0297973 17.9345 0.0165967 17.951 0.00859668C17.9674 0.000496684 17.986 -0.00190247 18.0039 0.00149753C20.0048 0.357698 21.9183 0.979597 23.7029 1.8238C23.7187 1.8306 23.7316 1.8422 23.7393 1.8581ZM11.8729 12.0972C11.895 10.5052 10.7694 9.1879 9.35644 9.1879C7.95504 9.1879 6.84034 10.4937 6.84034 12.0972C6.84034 13.7004 7.97714 15.0062 9.35644 15.0062C10.7582 15.0062 11.8729 13.7004 11.8729 12.0972ZM21.1766 12.0972C21.1987 10.5052 20.0731 9.1879 18.6605 9.1879C17.2587 9.1879 16.144 10.4937 16.144 12.0972C16.144 13.7004 17.2808 15.0062 18.6605 15.0062C20.0731 15.0062 21.1766 13.7004 21.1766 12.0972Z" fill="white"/>
</svg>
