<svg width="17" height="26" viewBox="0 0 17 26" fill="none" xmlns="http://www.w3.org/2000/svg">
<path d="M16.0833 0.958409C16.0833 0.770547 16.0087 0.59038 15.8759 0.457542C15.743 0.324704 15.5629 0.250076 15.375 0.250076H11.8333C10.0499 0.161238 8.30385 0.78188 6.9766 1.9764C5.64936 3.17091 4.84886 4.84219 4.75 6.62507V10.4501H1.20833C1.02047 10.4501 0.840304 10.5247 0.707466 10.6575C0.574628 10.7904 0.5 10.9705 0.5 11.1584V14.8417C0.5 15.0296 0.574628 15.2098 0.707466 15.3426C0.840304 15.4754 1.02047 15.5501 1.20833 15.5501H4.75V25.0417C4.75 25.2296 4.82463 25.4098 4.95746 25.5426C5.0903 25.6754 5.27047 25.7501 5.45833 25.7501H9.70833C9.89619 25.7501 10.0764 25.6754 10.2092 25.5426C10.342 25.4098 10.4167 25.2296 10.4167 25.0417V15.5501H14.1283C14.2858 15.5523 14.4396 15.502 14.5653 15.4071C14.6911 15.3122 14.7816 15.178 14.8225 15.0259L15.8425 11.3426C15.8707 11.2379 15.8745 11.1282 15.8536 11.0218C15.8327 10.9155 15.7876 10.8153 15.722 10.7291C15.6563 10.6429 15.5717 10.5729 15.4747 10.5245C15.3777 10.4762 15.2709 10.4507 15.1625 10.4501H10.4167V6.62507C10.4519 6.27442 10.6166 5.94948 10.8785 5.71372C11.1405 5.47796 11.4809 5.34831 11.8333 5.35007H15.375C15.5629 5.35007 15.743 5.27545 15.8759 5.14261C16.0087 5.00977 16.0833 4.8296 16.0833 4.64174V0.958409Z" fill="white"/>
</svg>
