<svg width="25" height="20" viewBox="0 0 25 20" fill="none" xmlns="http://www.w3.org/2000/svg">
<g opacity="0.1">
<path d="M5.92051 1.9656L4.11213 0.268702C4.07124 0.230327 3.99858 0.225322 3.94984 0.257522L1.7947 1.68139C1.74597 1.71359 1.73961 1.7708 1.7805 1.80917L3.58888 3.50607C3.62977 3.54444 3.70243 3.54945 3.75117 3.51725L5.90631 2.09338C5.95504 2.06118 5.9614 2.00397 5.92051 1.9656Z" fill="white"/>
<path d="M15.0182 2.59206L13.2098 0.895166C13.1689 0.856792 13.0962 0.851787 13.0475 0.883987L10.8924 2.30785C10.8436 2.34005 10.8373 2.39726 10.8782 2.43564L12.6865 4.13253C12.7274 4.1709 12.8001 4.17591 12.8488 4.14371L15.004 2.71985C15.0527 2.68765 15.0591 2.63043 15.0182 2.59206Z" fill="white"/>
<path d="M24.1148 3.21901L22.3065 1.52212C22.2656 1.48375 22.1929 1.47874 22.1442 1.51094L19.989 2.9348C19.9403 2.967 19.9339 3.02421 19.9748 3.06259L21.7832 4.75948C21.8241 4.79786 21.8968 4.80286 21.9455 4.77066L24.1006 3.3468C24.1494 3.3146 24.1557 3.25739 24.1148 3.21901Z" fill="white"/>
<path d="M5.12363 9.12819L3.31526 7.4313C3.27436 7.39292 3.2017 7.38792 3.15297 7.42012L0.99783 8.84398C0.949092 8.87618 0.942735 8.93339 0.98363 8.97177L2.792 10.6687C2.8329 10.707 2.90556 10.712 2.9543 10.6798L5.10943 9.25598C5.15817 9.22378 5.16453 9.16657 5.12363 9.12819Z" fill="white"/>
<path d="M14.2213 9.75466L12.4129 8.05776C12.372 8.01939 12.2994 8.01438 12.2506 8.04658L10.0955 9.47045C10.0467 9.50265 10.0404 9.55986 10.0813 9.59823L11.8897 11.2951C11.9306 11.3335 12.0032 11.3385 12.052 11.3063L14.2071 9.88244C14.2558 9.85024 14.2622 9.79303 14.2213 9.75466Z" fill="white"/>
<path d="M23.318 10.3811L21.5096 8.68423C21.4687 8.64585 21.396 8.64085 21.3473 8.67305L19.1922 10.0969C19.1434 10.1291 19.1371 10.1863 19.178 10.2247L20.9863 11.9216C21.0272 11.96 21.0999 11.965 21.1486 11.9328L23.3038 10.5089C23.3525 10.4767 23.3589 10.4195 23.318 10.3811Z" fill="white"/>
<path d="M4.32969 16.2903L2.52131 14.5934C2.48042 14.555 2.40776 14.55 2.35902 14.5822L0.203886 16.0061C0.155149 16.0383 0.14879 16.0955 0.189685 16.1339L1.99806 17.8308C2.03895 17.8691 2.11162 17.8741 2.16035 17.842L4.31549 16.4181C4.36423 16.3859 4.37058 16.3287 4.32969 16.2903Z" fill="white"/>
<path d="M13.4244 16.9168L11.616 15.2199C11.5751 15.1815 11.5025 15.1765 11.4537 15.2087L9.29861 16.6326C9.24987 16.6648 9.24352 16.722 9.28441 16.7603L11.0928 18.4572C11.1337 18.4956 11.2063 18.5006 11.2551 18.4684L13.4102 17.0446C13.459 17.0124 13.4653 16.9551 13.4244 16.9168Z" fill="white"/>
<path d="M22.5211 17.5432L20.7127 15.8463C20.6718 15.808 20.5992 15.803 20.5504 15.8352L18.3953 17.259C18.3466 17.2912 18.3402 17.3484 18.3811 17.3868L20.1895 19.0837C20.2304 19.1221 20.303 19.1271 20.3518 19.0949L22.5069 17.671C22.5556 17.6388 22.562 17.5816 22.5211 17.5432Z" fill="white"/>
</g>
</svg>
