<svg width="22" height="17" viewBox="0 0 22 17" fill="none" xmlns="http://www.w3.org/2000/svg">
<g opacity="0.1">
<path d="M5.71547 2.17761L4.20099 0.756488C4.1601 0.718114 4.08744 0.713115 4.03871 0.745315L2.23382 1.93777C2.18509 1.96997 2.17872 2.02718 2.21962 2.06555L3.7341 3.48667C3.77499 3.52504 3.84766 3.53005 3.8964 3.49785L5.70128 2.3054C5.75002 2.2732 5.75637 2.21598 5.71547 2.17761Z" fill="white"/>
<path d="M13.4401 2.70984L11.9256 1.28873C11.8847 1.25035 11.8121 1.24534 11.7633 1.27754L9.95843 2.47C9.90969 2.5022 9.90334 2.55942 9.94424 2.59779L11.4587 4.01891C11.4996 4.05728 11.5723 4.06228 11.621 4.03008L13.4259 2.83762C13.4746 2.80542 13.481 2.74822 13.4401 2.70984Z" fill="white"/>
<path d="M21.1774 3.24255L19.6629 1.82143C19.622 1.78306 19.5494 1.77806 19.5006 1.81026L17.6957 3.00271C17.647 3.03491 17.6406 3.09212 17.6815 3.13049L19.196 4.55161C19.2369 4.58999 19.3096 4.595 19.3583 4.5628L21.1632 3.37034C21.2119 3.33814 21.2183 3.28092 21.1774 3.24255Z" fill="white"/>
<path d="M5.03969 8.26403L3.52521 6.84291C3.48432 6.80454 3.41166 6.79954 3.36293 6.83174L1.55804 8.0242C1.5093 8.0564 1.50294 8.1136 1.54384 8.15198L3.05832 9.5731C3.09921 9.61147 3.17188 9.61648 3.22061 9.58428L5.0255 8.39182C5.07424 8.35962 5.08059 8.30241 5.03969 8.26403Z" fill="white"/>
<path d="M12.7643 8.79627L11.2498 7.37515C11.2089 7.33678 11.1363 7.33177 11.0875 7.36397L9.28265 8.55642C9.23391 8.58862 9.22756 8.64584 9.26846 8.68422L10.7829 10.1053C10.8238 10.1437 10.8965 10.1487 10.9452 10.1165L12.7501 8.92405C12.7988 8.89185 12.8052 8.83464 12.7643 8.79627Z" fill="white"/>
<path d="M20.4948 9.32897L18.9803 7.90786C18.9394 7.86948 18.8667 7.86448 18.818 7.89668L17.0131 9.08914C16.9644 9.12134 16.958 9.17854 16.9989 9.21692L18.5134 10.638C18.5543 10.6764 18.627 10.6814 18.6757 10.6492L20.4806 9.45676C20.5293 9.42456 20.5357 9.36735 20.4948 9.32897Z" fill="white"/>
<path d="M4.36391 14.35L2.84944 12.9289C2.80855 12.8905 2.73588 12.8855 2.68714 12.9177L0.88226 14.1101C0.833523 14.1423 0.82717 14.1996 0.868065 14.2379L2.38253 15.659C2.42343 15.6974 2.4961 15.7024 2.54483 15.6702L4.34972 14.4778C4.39845 14.4456 4.40481 14.3883 4.36391 14.35Z" fill="white"/>
<path d="M12.0895 14.8827L10.575 13.4616C10.5341 13.4232 10.4615 13.4182 10.4127 13.4504L8.60785 14.6429C8.55911 14.6751 8.55276 14.7323 8.59365 14.7706L10.1081 16.1918C10.149 16.2301 10.2217 16.2351 10.2704 16.2029L12.0753 15.0105C12.124 14.9783 12.1304 14.9211 12.0895 14.8827Z" fill="white"/>
<path d="M19.82 15.4154L18.3055 13.9943C18.2646 13.9559 18.1919 13.9509 18.1432 13.9831L16.3383 15.1756C16.2896 15.2078 16.2832 15.265 16.3241 15.3034L17.8386 16.7245C17.8795 16.7628 17.9522 16.7678 18.0009 16.7356L19.8058 15.5432C19.8545 15.511 19.8609 15.4538 19.82 15.4154Z" fill="white"/>
</g>
</svg>
