<svg width="30" height="24" viewBox="0 0 30 24" fill="none" xmlns="http://www.w3.org/2000/svg">
<path d="M2.44184 10.4521C2.44184 10.4521 15.091 5.18356 19.4778 3.32846C21.1596 2.58646 26.8627 0.211858 26.8627 0.211858C26.8627 0.211858 29.4949 -0.826941 29.2755 1.69596C29.2024 2.73486 28.6174 6.37076 28.0325 10.3037C27.1551 15.869 26.2046 21.9537 26.2046 21.9537C26.2046 21.9537 26.0584 23.6605 24.8154 23.9573C23.5724 24.2541 21.5251 22.9185 21.1596 22.6216C20.8671 22.399 15.6759 19.0598 13.7749 17.4273C13.2631 16.9821 12.6781 16.0917 13.8479 15.0528C16.4802 12.604 19.6241 9.56166 21.5251 7.63236C22.4026 6.74186 23.2799 4.66416 19.6241 7.18706C14.4329 10.8231 9.31483 14.2365 9.31483 14.2365C9.31483 14.2365 8.14489 14.9785 5.95147 14.3107C3.75785 13.6429 1.19887 12.7524 1.19887 12.7524C1.19887 12.7524 -0.555847 11.6394 2.44184 10.4521Z" fill="white"/>
</svg>
