<svg width="50" height="43" viewBox="0 0 50 43" fill="none" xmlns="http://www.w3.org/2000/svg">
<g filter="url(#filter0_d_396_34)">
<path d="M34.1008 10.0032C33.7379 10.0314 33.391 10.1648 33.1025 10.3869C32.8141 10.609 32.5965 10.9103 32.4764 11.254C32.3563 11.5977 32.3389 11.9689 32.4263 12.3223C32.5136 12.6757 32.702 12.9961 32.9684 13.2443C34.0109 14.2846 34.8374 15.5207 35.4005 16.8816C35.9636 18.2424 36.2521 19.7012 36.2495 21.1739C36.2514 22.6466 35.9626 24.1051 35.3995 25.4659C34.8365 26.8266 34.0103 28.0628 32.9684 29.1036C32.7873 29.2765 32.6427 29.4838 32.5429 29.7134C32.4431 29.943 32.3902 30.1902 32.3874 30.4406C32.3845 30.6909 32.4317 30.9393 32.5261 31.1711C32.6206 31.403 32.7605 31.6136 32.9375 31.7906C33.1145 31.9676 33.3251 32.1075 33.557 32.202C33.7888 32.2964 34.0372 32.3436 34.2875 32.3407C34.5378 32.3379 34.7851 32.285 35.0147 32.1852C35.2443 32.0854 35.4516 31.9407 35.6245 31.7597C38.4265 28.9492 40 25.1425 40 21.1739C40 17.2053 38.4265 13.3986 35.6245 10.5881C35.4532 10.407 35.2474 10.2618 35.0192 10.1611C34.7911 10.0605 34.5452 10.0063 34.2958 10.0019C34.2309 9.99937 34.1658 9.99937 34.1008 10.0019V10.0032ZM15.4692 10.0407C15.0537 10.0958 14.6686 10.2885 14.3755 10.5881C11.5734 13.3986 10 17.2053 10 21.1739C10 25.1425 11.5734 28.9492 14.3755 31.7597C14.5484 31.9407 14.7557 32.0854 14.9853 32.1852C15.2149 32.285 15.4622 32.3379 15.7125 32.3407C15.9628 32.3436 16.2112 32.2964 16.443 32.202C16.6749 32.1075 16.8855 31.9676 17.0625 31.7906C17.2395 31.6136 17.3794 31.403 17.4739 31.1711C17.5683 30.9393 17.6155 30.6909 17.6126 30.4406C17.6098 30.1902 17.5569 29.943 17.4571 29.7134C17.3573 29.4838 17.2126 29.2765 17.0316 29.1036C15.9891 28.0632 15.1626 26.8271 14.5995 25.4663C14.0364 24.1054 13.7479 22.6467 13.7505 21.1739C13.7486 19.7013 14.0374 18.2427 14.6004 16.882C15.1635 15.5212 15.9897 14.285 17.0316 13.2443C17.315 12.969 17.5043 12.6113 17.5723 12.2221C17.6403 11.8329 17.5837 11.4322 17.4104 11.0771C17.2372 10.722 16.9562 10.4307 16.6076 10.2448C16.259 10.0589 15.8605 9.98666 15.4692 10.0407ZM20.2352 14.1817C19.8241 14.2259 19.4392 14.4048 19.1403 14.6904C18.2323 15.5092 17.5061 16.5092 17.0083 17.626C16.5106 18.7427 16.2524 19.9513 16.2504 21.1739C16.2504 23.7338 17.3378 26.0612 19.1015 27.6586C19.2837 27.8253 19.497 27.9545 19.7291 28.0388C19.9612 28.123 20.2076 28.1608 20.4544 28.1498C20.7011 28.1388 20.9432 28.0794 21.1669 27.9748C21.3906 27.8703 21.5916 27.7227 21.7583 27.5405C21.925 27.3583 22.0541 27.1451 22.1384 26.9129C22.2227 26.6808 22.2604 26.4344 22.2494 26.1877C22.2385 25.941 22.179 25.6988 22.0745 25.4751C21.9699 25.2514 21.8223 25.0504 21.6401 24.8837C21.1215 24.4153 20.7075 23.8428 20.4249 23.2036C20.1424 22.5643 19.9976 21.8728 20.0002 21.1739C19.9976 20.4747 20.1424 19.7829 20.4252 19.1434C20.708 18.504 21.1224 17.9313 21.6414 17.4628C21.9409 17.2022 22.15 16.8533 22.2385 16.4662C22.327 16.0792 22.2904 15.674 22.1339 15.3092C21.9774 14.9443 21.7091 14.6385 21.3676 14.4359C21.0262 14.2333 20.6305 14.1443 20.2352 14.1817ZM29.4923 14.1817C29.1205 14.2022 28.7632 14.333 28.4659 14.5573C28.1687 14.7817 27.945 15.0895 27.8234 15.4415C27.7018 15.7935 27.6877 16.1737 27.7831 16.5337C27.8784 16.8937 28.0787 17.2171 28.3586 17.4628C28.8776 17.9313 29.292 18.504 29.5748 19.1434C29.8575 19.7829 30.0024 20.4747 29.9998 21.1739C30.0024 21.8731 29.8575 22.565 29.5748 23.2044C29.292 23.8438 28.8776 24.4165 28.3586 24.885C28.1497 25.041 27.9756 25.2389 27.8475 25.466C27.7194 25.6931 27.6401 25.9445 27.6146 26.204C27.5891 26.4635 27.618 26.7254 27.6995 26.9731C27.781 27.2208 27.9133 27.4488 28.0878 27.6425C28.2624 27.8361 28.4754 27.9913 28.7134 28.098C28.9513 28.2047 29.2088 28.2606 29.4696 28.2621C29.7303 28.2636 29.9885 28.2107 30.2277 28.1068C30.4668 28.0029 30.6817 27.8503 30.8585 27.6586C31.7668 26.8398 32.4934 25.8396 32.9914 24.7227C33.4893 23.6058 33.7476 22.3968 33.7496 21.1739C33.7543 19.9537 33.5029 18.7462 33.0118 17.6292C32.5207 16.5122 31.8008 15.5106 30.8985 14.6892C30.7114 14.5127 30.4901 14.3765 30.2482 14.2892C30.0062 14.2019 29.749 14.1653 29.4923 14.1817ZM25 18.909C24.5521 18.9093 24.1143 19.0423 23.742 19.2913C23.3697 19.5403 23.0796 19.8942 22.9084 20.308C22.7372 20.7219 22.6925 21.1773 22.78 21.6165C22.8676 22.0558 23.0834 22.4593 23.4002 22.7759C23.717 23.0925 24.1205 23.3081 24.5598 23.3954C24.9992 23.4827 25.4545 23.4377 25.8683 23.2663C26.2821 23.0948 26.6357 22.8045 26.8845 22.4321C27.1333 22.0597 27.2661 21.6218 27.2661 21.1739C27.2666 20.8762 27.2084 20.5813 27.0947 20.3061C26.9809 20.0309 26.814 19.7809 26.6035 19.5704C26.393 19.3599 26.143 19.193 25.8678 19.0793C25.5926 18.9655 25.2977 18.9085 25 18.909Z" fill="white"/>
</g>
<defs>
<filter id="filter0_d_396_34" x="0" y="0" width="50" height="42.3408" filterUnits="userSpaceOnUse" color-interpolation-filters="sRGB">
<feFlood flood-opacity="0" result="BackgroundImageFix"/>
<feColorMatrix in="SourceAlpha" type="matrix" values="0 0 0 0 0 0 0 0 0 0 0 0 0 0 0 0 0 0 127 0" result="hardAlpha"/>
<feOffset/>
<feGaussianBlur stdDeviation="5"/>
<feComposite in2="hardAlpha" operator="out"/>
<feColorMatrix type="matrix" values="0 0 0 0 1 0 0 0 0 1 0 0 0 0 1 0 0 0 0.44 0"/>
<feBlend mode="normal" in2="BackgroundImageFix" result="effect1_dropShadow_396_34"/>
<feBlend mode="normal" in="SourceGraphic" in2="effect1_dropShadow_396_34" result="shape"/>
</filter>
</defs>
</svg>
