<svg width="36" height="25" viewBox="0 0 36 25" fill="none" xmlns="http://www.w3.org/2000/svg">
<path fill-rule="evenodd" clip-rule="evenodd" d="M32.0655 0.744301C33.6176 1.1591 34.8374 2.3693 35.2498 3.9034C36 6.6875 36 12.5 36 12.5C36 12.5 36 18.3125 35.2498 21.0966C34.8317 22.6364 33.6118 23.8466 32.0655 24.2557C29.2593 25 18 25 18 25C18 25 6.7464 25 3.9345 24.2557C2.3824 23.8409 1.1626 22.6307 0.7502 21.0966C2.98023e-07 18.3125 0 12.5 0 12.5C0 12.5 2.98023e-07 6.6875 0.7502 3.9034C1.1683 2.3636 2.3882 1.1534 3.9345 0.744301C6.7464 8.34465e-07 18 0 18 0C18 0 29.2593 8.34465e-07 32.0655 0.744301ZM14.25 18.1292L24 12.5L14.25 6.8708V18.1292Z" fill="white"/>
</svg>
